<svg viewBox="0 0 226 22" fill="none" xmlns="http://www.w3.org/2000/svg">
  <title>ConductorOne</title>
  <path
    d="M11.131 18.0701c-3.94979.0-7.14886-3.1613-7.14886-7.0644.0-3.90318 3.19907-7.06443 7.14886-7.06443h3.0886V0H11.131C4.98003.0.0 4.92736.0 10.9995.0 17.0716 4.98628 21.999 11.131 21.999c6.1448.0 11.1311-4.9274 11.1311-10.9995H18.2737C18.2799 14.9088 15.0808 18.0701 11.131 18.0701z"
    fill="#483edf"></path>
  <path d="M16.2404.00618238V3.94127h2.0395V8.97063h3.9895V.00618238h-6.029z" fill="#7aca55"></path>
  <path
    d="M40.3908 20.9851c3.5911.0 6.7641-1.8156 8.3793-4.6214L45.986 14.7955c-1.0021 1.898-3.1459 3.1087-5.5952 3.1087-4.2032.0-6.9873-2.9428-6.9873-6.9047.0-3.96189 2.7841-6.9047 6.9873-6.9047C42.8401 4.0948 44.9558 5.30551 45.986 7.2035l2.7841-1.59505c-1.6423-2.80577-4.8153-4.59351-8.3793-4.59351-5.9289.0-10.1884 4.40083-10.1884 9.98556.0 5.5848 4.2584 9.9856 10.1884 9.9856V20.9851zm17.942.0c4.0917.0 7.3491-3.1634 7.3491-7.2345.0-4.07105-3.2574-7.23437-7.3491-7.23437-4.0916.0-7.349 3.1355-7.349 7.23437.0 4.099 3.2845 7.2345 7.349 7.2345zm0-2.8882c-2.4493.0-4.3429-1.8434-4.3429-4.3463.0-2.5028 1.8926-4.34617 4.3429-4.34617 2.4504.0 4.3419 1.84337 4.3419 4.34617.0 2.5029-1.8925 4.3463-4.3419 4.3463zM76.278 6.51623C74.3855 6.51623 72.8819 7.2035 71.9633 8.63473V6.87378H68.9571V20.6275H71.9633V13.255C71.9633 10.4493 73.5221 9.29418 75.4981 9.29418 77.474 9.29418 78.6158 10.3946 78.6158 12.4853v8.1422H81.622V12.1824c0-3.5755-2.2273-5.66617-5.345-5.66617H76.278zM96.4401 1.37249V8.82638c-1.0574-1.43019-2.7007-2.31015-4.8716-2.31015-3.7861.0-6.931 3.1355-6.931 7.23437.0 4.099 3.1459 7.2345 6.931 7.2345 2.1709.0 3.8132-.879999999999999 4.8716-2.338v1.9804h3.0061V1.37249H96.4401zM92.0419 18.1525c-2.5057.0-4.3982-1.8434-4.3982-4.4008.0-2.5575 1.8925-4.40085 4.3982-4.40085 2.5056.0 4.3982 1.84335 4.3982 4.40085.0 2.5574-1.8926 4.4008-4.3982 4.4008zM112.888 6.87481V14.2473C112.888 17.0531 111.329 18.2081 109.353 18.2081s-3.118-1.1004-3.118-3.1911V6.87378h-3.006V15.3189c0 3.5755 2.227 5.6662 5.345 5.6662 1.893.0 3.396-.687300000000001 4.315-2.1185v1.7609h3.006V6.87378h-3.006L112.888 6.87481zM126.536 20.9861C129.264 20.9861 131.63 19.5837 132.8 17.4106l-2.589-1.458C129.542 17.2179 128.178 18.0711 126.508 18.0711c-2.449.0-4.315-1.8434-4.315-4.3184.0-2.475 1.866-4.31839 4.315-4.31839C128.178 9.43431 129.542 10.2597 130.154 11.5528l2.589-1.4858C131.63 7.92169 129.264 6.51829 126.536 6.51829c-4.203.0-7.349 3.1355-7.349 7.23441.0 4.0989 3.146 7.2344 7.349 7.2344V20.9861zm16.76-11.25091V6.87481h-3.452V3.02215l-3.006.87996V6.87275H134.277V9.73313H136.838V16.3349c0 3.5755 1.83700000000002 4.8418 6.459 4.2916V17.9578C141.014 18.068 139.845 18.0948 139.845 16.3349V9.73416h3.452L143.296 9.73519zM152.578 20.9861C156.67 20.9861 159.927 17.8228 159.927 13.7517 159.927 9.68058 156.671 6.51726 152.578 6.51726S145.229 9.65276 145.229 13.7517C145.229 17.8506 148.513 20.9861 152.578 20.9861zm0-2.8882C150.129 18.0979 148.235 16.2545 148.235 13.7517 148.235 11.2488 150.128 9.40546 152.578 9.40546 155.028 9.40546 156.921 11.2488 156.921 13.7517c0 2.5028-1.893 4.3462-4.34299999999999 4.3462zm13.63-11.22309h-3.006V20.6275h3.006V13.696C166.208 10.6151 168.519 9.70737 170.495 9.84544V6.62751C168.741 6.62751 167.044 7.31479 166.208 9.18599V6.87481zM182.599 20.9861c5.65000000000001.0 10.105-4.4008 10.105-9.9856C192.704 5.41577 188.25 1.01494 182.599 1.01494 176.947 1.01494 172.494 5.41577 172.494 11.0005c0 5.5848 4.482 9.9856 10.105 9.9856zm0-3.0809c-3.89699999999999.0-6.904-2.9428-6.904-6.9047.0-3.96186 3.006-6.90467 6.904-6.90467 3.89800000000002.0 6.904 2.94281 6.904 6.90467.0 3.9619-3.00599999999997 6.9047-6.904 6.9047zM203.306 6.51726C201.414 6.51726 199.91 7.20453 198.991 8.63576V6.87481h-3.006V20.6275h3.006V13.255c0-2.8057 1.559-3.96082 3.535-3.96082s3.118 1.10042 3.118 3.19112v8.1422h3.006V12.1824c0-3.5755-2.227-5.66617-5.345-5.66617L203.306 6.51726zM225.889 15.017C225.945 14.6316 226.001 14.1917 226.001 13.7795c0-3.96085-2.839-7.26224-6.987-7.26224C214.644 6.51726 211.665 9.68058 211.665 13.7517c0 4.0711 2.97800000000001 7.2344 7.571 7.2344 2.72800000000001.0 4.815-1.1283 6.096-2.9985L222.854 16.5574C222.186 17.5198 220.933 18.2628 219.263 18.2628 217.036 18.2628 215.282 17.1623 214.81 15.017h11.079zm-11.107-2.4204C215.2 10.5337 216.731 9.21278 218.986 9.21278 220.795 9.21278 222.549 10.2308 222.967 12.5966h-8.185z"
    fill="#ddd"></path>
</svg>
